<?xml version="1.0" standalone="no"?>
<!DOCTYPE svg PUBLIC "-//W3C//DTD SVG 20010904//EN"
 "http://www.w3.org/TR/2001/REC-SVG-20010904/DTD/svg10.dtd">
<svg version="1.0" xmlns="http://www.w3.org/2000/svg"
 width="432.000000pt" height="577.000000pt" viewBox="0 0 432.000000 577.000000"
 preserveAspectRatio="xMidYMid meet">
<metadata>
Created by potrace 1.16, written by Peter Selinger 2001-2019
</metadata>
<g transform="translate(0.000000,577.000000) scale(0.100000,-0.100000)"
fill="#000000" stroke="none">
<path d="M0 2885 l0 -2885 2160 0 2160 0 0 2885 0 2885 -2160 0 -2160 0 0
-2885z m2380 1737 c0 -4 -27 -14 -60 -20 -69 -15 -75 -22 -85 -110 -8 -74 -34
-114 -59 -93 -8 7 -15 20 -14 29 3 40 -5 51 -48 72 -25 13 -49 31 -53 42 -4
10 -20 27 -36 38 l-29 19 26 6 c14 4 48 4 74 0 27 -4 66 -9 87 -12 28 -4 43 0
57 12 11 10 28 15 40 12 11 -3 23 -1 26 4 6 11 74 12 74 1z m247 -482 c3 -11
9 -17 14 -14 5 3 14 -8 20 -24 6 -17 17 -33 25 -36 21 -8 17 -47 -6 -53 -11
-3 -20 -14 -20 -24 0 -10 -4 -20 -9 -24 -5 -3 -12 -19 -16 -35 -7 -30 -17 -36
-75 -42 -17 -2 -25 -9 -24 -21 1 -9 -2 -17 -7 -17 -5 0 -9 -7 -9 -15 0 -21
-32 -19 -51 3 -22 26 -49 82 -49 102 0 9 -5 21 -11 27 -8 8 -8 17 0 31 19 36
14 52 -19 52 -25 0 -30 4 -36 35 -9 49 0 67 33 63 22 -2 29 -9 33 -32 5 -27
30 -51 30 -28 0 5 19 9 42 10 23 1 47 7 52 12 6 6 18 10 27 10 9 0 19 9 22 20
7 26 27 26 34 0z m-214 -492 c9 -5 17 -15 17 -23 0 -9 6 -24 13 -36 10 -17 9
-22 -5 -30 -10 -6 -18 -14 -18 -19 0 -5 -20 -30 -44 -55 -38 -39 -50 -45 -84
-45 -47 0 -111 36 -112 62 0 9 12 23 27 30 15 7 34 26 41 41 7 15 19 27 27 27
9 0 12 6 9 15 -4 9 2 18 17 24 l24 10 -25 1 c-20 0 -22 2 -10 10 16 11 94 3
123 -12z m345 -718 c4 -175 2 -191 -22 -280 -17 -64 -27 -132 -31 -210 -3 -63
-9 -128 -15 -145 -5 -16 -23 -104 -40 -195 -32 -171 -68 -346 -100 -485 -10
-44 -27 -116 -36 -160 -10 -44 -21 -82 -25 -85 -3 -3 -13 -25 -21 -50 l-15
-45 -7 35 c-7 37 -41 370 -52 508 -7 95 -40 242 -79 352 -23 65 -25 81 -16
115 6 22 24 56 41 75 28 32 31 34 44 18 7 -10 18 -18 25 -18 6 0 11 -4 11 -9
0 -4 14 -26 31 -47 17 -22 35 -46 39 -54 8 -13 11 -13 26 2 15 15 13 23 -36
114 -75 143 -118 202 -161 227 -21 12 -39 24 -39 28 0 3 45 51 100 108 55 56
129 135 164 174 69 78 146 211 146 255 0 15 3 38 7 51 5 20 9 16 31 -35 23
-54 26 -73 30 -244z m-1004 101 c123 -111 176 -152 296 -226 52 -32 100 -63
105 -70 6 -6 31 -29 57 -49 26 -21 45 -43 42 -48 -3 -5 4 -20 16 -33 l22 -24
-38 -7 c-22 -3 -45 -12 -53 -18 -25 -20 -114 -160 -133 -208 -16 -42 -16 -51
-3 -88 13 -36 13 -84 4 -329 -5 -157 -14 -324 -19 -371 -4 -47 -9 -121 -10
-165 0 -54 -4 -75 -10 -64 -21 37 -126 432 -214 809 -13 58 -40 168 -60 245
-20 77 -35 146 -34 154 4 19 58 -34 84 -82 11 -19 41 -75 69 -126 27 -50 53
-91 57 -91 16 0 7 28 -29 86 -119 194 -136 229 -140 284 -3 30 -13 91 -24 135
-15 64 -17 91 -10 137 10 57 6 82 -25 176 -19 57 -17 75 3 34 9 -18 30 -46 47
-61z"/>
</g>
</svg>
