<svg xmlns="http://www.w3.org/2000/svg" xmlns:xlink="http://www.w3.org/1999/xlink" width="500" zoomAndPan="magnify" viewBox="0 0 375 374.999991" height="500" preserveAspectRatio="xMidYMid meet" version="1.0"><defs><clipPath id="4287f1bc37"><path d="M 50 0 L 325.171875 0 L 325.171875 375 L 50 375 Z M 50 0 " clip-rule="nonzero"/></clipPath></defs><g clip-path="url(#4287f1bc37)"><path fill="#000000" d="M 50 50 L 50 325 C 50 334.675781 56.300781 345 70.207031 353.050781 C 92.226562 365.773438 136.46875 375 187.546875 375 C 238.625 375 282.867188 365.773438 304.886719 353.050781 C 318.792969 345 325.09375 334.675781 325.09375 325 C 325.09375 325 325.09375 49.773438 325.09375 49.773438 C 324.992188 40.164062 318.691406 29.9375 304.886719 21.949219 C 282.867188 9.226562 238.625 0 187.546875 0 C 136.46875 0 92.226562 9.226562 70.207031 21.949219 C 56.300781 30 50 40.324219 50 50 Z M 300.085938 261.851562 C 276.816406 273.238281 235.136719 281.25 187.546875 281.25 C 139.941406 281.25 98.265625 273.238281 75.007812 261.851562 L 75.007812 325 C 75.007812 326.050781 76.207031 326.613281 77.246094 327.5625 C 80.523438 330.5 85.375 333.113281 91.375 335.574219 C 113.070312 344.4375 148.097656 350 187.546875 350 C 226.996094 350 262.023438 344.4375 283.71875 335.574219 C 289.71875 333.113281 294.570312 330.5 297.847656 327.5625 C 298.886719 326.613281 300.085938 326.050781 300.085938 325 Z M 300.085938 174.351562 C 276.816406 185.738281 235.136719 193.75 187.546875 193.75 C 139.941406 193.75 98.265625 185.738281 75.007812 174.351562 L 75.007812 231.238281 C 75.019531 232.3125 76.234375 232.898438 77.308594 233.863281 C 80.609375 236.8125 85.476562 239.414062 91.5 241.875 C 113.195312 250.710938 148.171875 256.25 187.546875 256.25 C 226.996094 256.25 262.023438 250.6875 283.71875 241.824219 C 289.71875 239.363281 294.570312 236.75 297.847656 233.8125 C 298.886719 232.863281 300.085938 232.300781 300.085938 231.25 Z M 300.085938 80.601562 C 276.816406 91.988281 235.136719 100 187.546875 100 C 139.957031 100 98.277344 91.988281 75.007812 80.601562 L 75.007812 143.738281 C 75.019531 144.8125 76.234375 145.398438 77.308594 146.363281 C 80.609375 149.3125 85.476562 151.914062 91.5 154.375 C 113.195312 163.210938 148.171875 168.75 187.546875 168.75 C 226.996094 168.75 262.023438 163.1875 283.71875 154.324219 C 289.71875 151.863281 294.570312 149.25 297.847656 146.3125 C 298.886719 145.363281 300.085938 144.800781 300.085938 143.75 Z M 187.546875 25 C 226.996094 25 262.023438 30.5625 283.71875 39.425781 C 289.71875 41.886719 294.570312 44.5 297.847656 47.4375 C 298.886719 48.386719 300.085938 48.949219 300.085938 50 C 300.085938 51.050781 298.886719 51.613281 297.847656 52.5625 C 294.570312 55.5 289.71875 58.113281 283.71875 60.574219 C 262.023438 69.4375 226.996094 75 187.546875 75 C 148.097656 75 113.070312 69.4375 91.375 60.574219 C 85.375 58.113281 80.523438 55.5 77.246094 52.5625 C 76.207031 51.613281 75.007812 51.050781 75.007812 50 C 75.007812 48.949219 76.207031 48.386719 77.246094 47.4375 C 80.523438 44.5 85.375 41.886719 91.375 39.425781 C 113.070312 30.5625 148.097656 25 187.546875 25 Z M 187.546875 25 " fill-opacity="1" fill-rule="evenodd"/></g></svg>