<svg xmlns="http://www.w3.org/2000/svg" xmlns:xlink="http://www.w3.org/1999/xlink" width="500" zoomAndPan="magnify" viewBox="0 0 375 374.999991" height="500" preserveAspectRatio="xMidYMid meet" version="1.0"><path fill="#29a385" d="M 187.007812 73.914062 C 190.734375 73.78125 194.40625 75.058594 197.15625 77.800781 L 282.082031 162.8125 C 288.007812 168.761719 288.363281 177.957031 282.863281 183.457031 L 270.246094 196.097656 C 264.746094 201.597656 255.554688 201.234375 249.632812 195.3125 L 214.152344 159.804688 L 214.152344 287.894531 C 214.152344 295.105469 208.796875 300.878906 202.132812 300.878906 L 172.347656 300.878906 C 165.679688 300.878906 160.289062 295.105469 160.289062 287.894531 L 160.289062 159.804688 L 124.851562 195.3125 C 118.894531 201.242188 109.695312 201.597656 104.207031 196.097656 L 91.578125 183.457031 C 86.089844 177.957031 86.464844 168.761719 92.390625 162.8125 L 176.507812 78.59375 C 179.472656 75.625 183.285156 74.042969 187.007812 73.914062 Z M 187.222656 -0.242188 C 137.523438 -0.242188 89.84375 19.527344 54.695312 54.710938 C 19.550781 89.910156 -0.199219 137.621094 -0.199219 187.410156 C -0.199219 237.148438 19.550781 284.890625 54.695312 320.070312 C 89.84375 355.253906 137.523438 375.019531 187.222656 375.019531 C 236.949219 375.019531 284.609375 355.253906 319.753906 320.070312 C 354.902344 284.890625 374.65625 237.148438 374.65625 187.410156 C 374.65625 137.621094 354.90625 89.910156 319.753906 54.710938 C 284.609375 19.535156 236.949219 -0.242188 187.222656 -0.242188 Z M 187.222656 -0.242188 " fill-opacity="1" fill-rule="nonzero"/></svg>