<svg xmlns="http://www.w3.org/2000/svg" xmlns:xlink="http://www.w3.org/1999/xlink" width="500" zoomAndPan="magnify" viewBox="0 0 375 374.999991" height="500" preserveAspectRatio="xMidYMid meet" version="1.0"><path fill="#29a385" d="M 375.339844 187.667969 C 375.339844 190.742188 375.265625 193.808594 375.113281 196.878906 C 374.960938 199.945312 374.738281 203.007812 374.4375 206.066406 C 374.132812 209.121094 373.757812 212.167969 373.308594 215.207031 C 372.855469 218.246094 372.332031 221.269531 371.734375 224.28125 C 371.132812 227.292969 370.460938 230.289062 369.714844 233.269531 C 368.96875 236.25 368.148438 239.207031 367.257812 242.148438 C 366.367188 245.085938 365.402344 248 364.367188 250.894531 C 363.335938 253.785156 362.230469 256.648438 361.054688 259.488281 C 359.878906 262.324219 358.632812 265.132812 357.320312 267.910156 C 356.007812 270.683594 354.628906 273.429688 353.179688 276.136719 C 351.730469 278.84375 350.21875 281.515625 348.640625 284.152344 C 347.058594 286.785156 345.417969 289.378906 343.710938 291.933594 C 342.003906 294.488281 340.238281 296.996094 338.40625 299.464844 C 336.578125 301.929688 334.6875 304.351562 332.742188 306.726562 C 330.792969 309.101562 328.785156 311.425781 326.722656 313.699219 C 324.660156 315.976562 322.542969 318.199219 320.371094 320.371094 C 318.199219 322.542969 315.976562 324.660156 313.699219 326.722656 C 311.425781 328.785156 309.101562 330.792969 306.726562 332.742188 C 304.351562 334.6875 301.929688 336.578125 299.464844 338.40625 C 296.996094 340.238281 294.488281 342.003906 291.933594 343.710938 C 289.378906 345.417969 286.785156 347.058594 284.152344 348.640625 C 281.515625 350.21875 278.84375 351.730469 276.136719 353.179688 C 273.429688 354.628906 270.683594 356.007812 267.910156 357.320312 C 265.132812 358.632812 262.324219 359.878906 259.488281 361.054688 C 256.648438 362.230469 253.785156 363.335938 250.894531 364.367188 C 248 365.402344 245.085938 366.367188 242.148438 367.257812 C 239.207031 368.148438 236.25 368.96875 233.269531 369.714844 C 230.289062 370.460938 227.292969 371.132812 224.28125 371.734375 C 221.269531 372.332031 218.246094 372.855469 215.207031 373.308594 C 212.167969 373.757812 209.121094 374.132812 206.066406 374.4375 C 203.007812 374.738281 199.945312 374.960938 196.878906 375.113281 C 193.808594 375.265625 190.742188 375.339844 187.667969 375.339844 C 184.597656 375.339844 181.527344 375.265625 178.460938 375.113281 C 175.394531 374.960938 172.332031 374.738281 169.273438 374.4375 C 166.21875 374.132812 163.171875 373.757812 160.132812 373.308594 C 157.09375 372.855469 154.070312 372.332031 151.058594 371.734375 C 148.042969 371.132812 145.050781 370.460938 142.070312 369.714844 C 139.089844 368.96875 136.132812 368.148438 133.191406 367.257812 C 130.253906 366.367188 127.335938 365.402344 124.445312 364.367188 C 121.554688 363.335938 118.6875 362.230469 115.851562 361.054688 C 113.015625 359.878906 110.207031 358.632812 107.429688 357.320312 C 104.652344 356.007812 101.910156 354.628906 99.203125 353.179688 C 96.492188 351.730469 93.824219 350.21875 91.1875 348.640625 C 88.554688 347.058594 85.960938 345.417969 83.40625 343.710938 C 80.851562 342.003906 78.34375 340.238281 75.875 338.40625 C 73.40625 336.578125 70.988281 334.6875 68.613281 332.742188 C 66.238281 330.792969 63.914062 328.785156 61.636719 326.722656 C 59.363281 324.660156 57.140625 322.542969 54.96875 320.371094 C 52.796875 318.199219 50.679688 315.976562 48.617188 313.699219 C 46.554688 311.425781 44.546875 309.101562 42.597656 306.726562 C 40.652344 304.351562 38.761719 301.929688 36.933594 299.464844 C 35.101562 296.996094 33.335938 294.488281 31.628906 291.933594 C 29.921875 289.378906 28.277344 286.785156 26.699219 284.152344 C 25.121094 281.515625 23.609375 278.84375 22.160156 276.136719 C 20.710938 273.429688 19.332031 270.683594 18.019531 267.910156 C 16.707031 265.132812 15.460938 262.324219 14.285156 259.488281 C 13.109375 256.648438 12.003906 253.785156 10.96875 250.894531 C 9.9375 248 8.972656 245.085938 8.082031 242.148438 C 7.1875 239.207031 6.371094 236.25 5.625 233.269531 C 4.878906 230.289062 4.207031 227.292969 3.605469 224.28125 C 3.007812 221.269531 2.480469 218.246094 2.03125 215.207031 C 1.582031 212.167969 1.203125 209.121094 0.902344 206.066406 C 0.601562 203.007812 0.375 199.945312 0.226562 196.878906 C 0.0742188 193.808594 0 190.742188 0 187.667969 C 0 184.597656 0.0742188 181.527344 0.226562 178.460938 C 0.375 175.394531 0.601562 172.332031 0.902344 169.273438 C 1.203125 166.21875 1.582031 163.171875 2.03125 160.132812 C 2.480469 157.09375 3.007812 154.070312 3.605469 151.058594 C 4.207031 148.042969 4.878906 145.050781 5.625 142.070312 C 6.371094 139.089844 7.1875 136.132812 8.082031 133.191406 C 8.972656 130.253906 9.9375 127.335938 10.96875 124.445312 C 12.003906 121.554688 13.109375 118.6875 14.285156 115.851562 C 15.460938 113.015625 16.707031 110.207031 18.019531 107.429688 C 19.332031 104.652344 20.710938 101.910156 22.160156 99.203125 C 23.609375 96.492188 25.121094 93.824219 26.699219 91.1875 C 28.277344 88.554688 29.921875 85.960938 31.628906 83.40625 C 33.335938 80.851562 35.101562 78.34375 36.933594 75.875 C 38.761719 73.40625 40.652344 70.988281 42.597656 68.613281 C 44.546875 66.238281 46.554688 63.914062 48.617188 61.636719 C 50.679688 59.363281 52.796875 57.140625 54.96875 54.96875 C 57.140625 52.796875 59.363281 50.679688 61.636719 48.617188 C 63.914062 46.554688 66.238281 44.546875 68.613281 42.597656 C 70.988281 40.652344 73.40625 38.761719 75.875 36.933594 C 78.34375 35.101562 80.851562 33.335938 83.40625 31.628906 C 85.960938 29.921875 88.554688 28.277344 91.1875 26.699219 C 93.824219 25.121094 96.492188 23.609375 99.203125 22.160156 C 101.910156 20.710938 104.652344 19.332031 107.429688 18.019531 C 110.207031 16.707031 113.015625 15.460938 115.851562 14.285156 C 118.6875 13.109375 121.554688 12.003906 124.445312 10.96875 C 127.335938 9.9375 130.253906 8.972656 133.191406 8.082031 C 136.132812 7.1875 139.089844 6.371094 142.070312 5.625 C 145.050781 4.878906 148.042969 4.207031 151.058594 3.605469 C 154.070312 3.007812 157.09375 2.480469 160.132812 2.03125 C 163.171875 1.582031 166.21875 1.203125 169.273438 0.902344 C 172.332031 0.601562 175.394531 0.375 178.460938 0.226562 C 181.527344 0.0742188 184.597656 0 187.667969 0 C 190.742188 0 193.808594 0.0742188 196.878906 0.226562 C 199.945312 0.375 203.007812 0.601562 206.066406 0.902344 C 209.121094 1.203125 212.167969 1.582031 215.207031 2.03125 C 218.246094 2.480469 221.269531 3.007812 224.28125 3.605469 C 227.292969 4.207031 230.289062 4.878906 233.269531 5.625 C 236.25 6.371094 239.207031 7.1875 242.148438 8.082031 C 245.085938 8.972656 248 9.9375 250.894531 10.96875 C 253.785156 12.003906 256.648438 13.109375 259.488281 14.285156 C 262.324219 15.460938 265.132812 16.707031 267.910156 18.019531 C 270.683594 19.332031 273.429688 20.710938 276.136719 22.160156 C 278.84375 23.609375 281.515625 25.121094 284.152344 26.699219 C 286.785156 28.277344 289.378906 29.921875 291.933594 31.628906 C 294.488281 33.335938 296.996094 35.101562 299.464844 36.933594 C 301.929688 38.761719 304.351562 40.652344 306.726562 42.597656 C 309.101562 44.546875 311.425781 46.554688 313.699219 48.617188 C 315.976562 50.679688 318.199219 52.796875 320.371094 54.96875 C 322.542969 57.140625 324.660156 59.363281 326.722656 61.636719 C 328.785156 63.914062 330.792969 66.238281 332.742188 68.613281 C 334.6875 70.988281 336.578125 73.40625 338.40625 75.875 C 340.238281 78.34375 342.003906 80.851562 343.710938 83.40625 C 345.417969 85.960938 347.058594 88.554688 348.640625 91.1875 C 350.21875 93.824219 351.730469 96.492188 353.179688 99.203125 C 354.628906 101.910156 356.007812 104.652344 357.320312 107.429688 C 358.632812 110.207031 359.878906 113.015625 361.054688 115.851562 C 362.230469 118.6875 363.335938 121.554688 364.367188 124.445312 C 365.402344 127.335938 366.367188 130.253906 367.257812 133.191406 C 368.148438 136.132812 368.96875 139.089844 369.714844 142.070312 C 370.460938 145.050781 371.132812 148.042969 371.734375 151.058594 C 372.332031 154.070312 372.855469 157.09375 373.308594 160.132812 C 373.757812 163.171875 374.132812 166.21875 374.4375 169.273438 C 374.738281 172.332031 374.960938 175.394531 375.113281 178.460938 C 375.265625 181.527344 375.339844 184.597656 375.339844 187.667969 Z M 375.339844 187.667969 " fill-opacity="1" fill-rule="nonzero"/><path fill="#fefefe" d="M 190.46875 64.632812 C 256.695312 62.917969 311.777344 115.214844 313.488281 181.441406 C 315.203125 247.667969 262.90625 302.75 196.679688 304.460938 C 175.417969 305.023438 155.3125 300 137.730469 290.734375 L 74.40625 310.0625 L 90.425781 245.820312 C 80.261719 228.75 74.203125 208.929688 73.660156 187.667969 C 71.945312 121.441406 124.242188 66.363281 190.46875 64.648438 Z M 124.566406 118.589844 C 94.207031 150.558594 90.253906 198.191406 112.449219 234.316406 L 100.382812 282.675781 L 148.066406 268.132812 C 185.496094 288.546875 232.804688 281.859375 263.007812 250.046875 C 299.289062 211.832031 297.777344 151.476562 259.582031 115.148438 L 259.511719 115.078125 C 221.285156 78.785156 160.875 80.328125 124.566406 118.574219 Z M 206.25 212.546875 C 188.652344 204.265625 174.128906 190.46875 164.949219 173.332031 C 166.542969 171.617188 168.171875 169.9375 169.835938 168.308594 C 171.652344 166.492188 172.007812 163.574219 170.835938 161.0625 C 167.578125 154.175781 165.273438 146.675781 164.101562 138.714844 C 163.609375 135.457031 161.234375 132.863281 158.382812 132.894531 C 156.363281 132.945312 153.902344 133.015625 151.304688 133.082031 C 140.957031 132.761719 132.386719 147.117188 137.289062 163.269531 C 148.726562 201.039062 179.457031 230.226562 217.789062 239.695312 C 234.164062 243.75 248.058594 234.433594 247.195312 224.117188 C 247.125 221.757812 247.074219 219.402344 247.007812 217.042969 C 246.890625 214.191406 244.175781 211.953125 240.898438 211.628906 C 232.890625 210.867188 225.273438 208.929688 218.230469 206.046875 C 215.667969 205.011719 212.765625 205.519531 211.050781 207.421875 C 209.507812 209.167969 207.914062 210.882812 206.285156 212.5625 Z M 206.25 212.546875 " fill-opacity="1" fill-rule="evenodd"/></svg>